<?xml version="1.0" encoding="UTF-8"?> <svg xmlns="http://www.w3.org/2000/svg" width="431" height="98" viewBox="0 0 431 98" fill="none"><g clip-path="url(#clip0_255_2)"><mask id="mask0_255_2" style="mask-type:luminance" maskUnits="userSpaceOnUse" x="0" y="0" width="431" height="98"><path d="M430.5 0.5H0.5V97.013H430.5V0.5Z" fill="white"></path></mask><g mask="url(#mask0_255_2)"><mask id="mask1_255_2" style="mask-type:luminance" maskUnits="userSpaceOnUse" x="0" y="0" width="431" height="98"><path d="M430.5 0.5H0.5V97.013H430.5V0.5Z" fill="white"></path></mask><g mask="url(#mask1_255_2)"><path fill-rule="evenodd" clip-rule="evenodd" d="M380.344 59.6005V64.7684H383.708V62.4273C384.594 62.2947 385.347 62.2065 386.454 62.2065C388.667 62.2065 389.552 63.1341 389.552 64.7243V66.4027C389.065 66.3584 388.49 66.3143 387.915 66.3143C381.76 66.3143 379.237 68.4345 379.237 72.3657C379.237 75.2811 381.097 77.1803 384.195 77.1803C387.162 77.1803 389.11 75.9877 390.083 73.6909C390.438 76.2086 391.987 77.357 395.352 76.9152V73.6467C393.935 73.8675 393.271 73.205 393.271 71.7473V64.7684C393.271 61.4115 391.633 59.247 386.719 59.247C384.594 59.2029 382.513 59.2913 380.344 59.6005ZM421.382 27.4441H424.748V32.082H421.382C419.524 32.082 418.859 31.1103 418.859 29.6968C418.859 28.3716 419.524 27.4441 421.382 27.4441ZM420.541 24.3963C416.778 24.3963 415.096 26.384 415.096 28.9017C415.096 31.1986 416.424 32.6563 418.683 33.1421C416.911 33.3631 415.141 34.5114 415.141 38.4869H413.281V41.7554H420.541V38.4869H418.816C418.816 34.9972 420.054 34.5557 421.736 34.5557H424.748V38.4869H423.021V41.7554H430.502V38.4869H428.421V27.665H430.502V24.3963H420.541ZM395.086 24.4404V29.6085H398.45V27.2674C399.291 27.1349 400.089 27.0466 401.194 27.0466C403.408 27.0466 404.294 27.9742 404.294 29.5642V31.2429C403.807 31.1986 403.232 31.1545 402.655 31.1545C396.502 31.1545 393.979 33.2747 393.979 37.1617C393.979 40.0769 395.839 41.9763 398.937 41.9763C401.904 41.9763 403.852 40.7837 404.826 38.4869C405.18 41.0045 406.729 42.153 410.093 41.7113V38.4869C408.677 38.7076 408.012 38.0451 408.012 36.5875V29.5642C408.012 26.2073 406.375 24.043 401.46 24.043C399.336 24.0871 397.255 24.1755 395.086 24.4404ZM402.745 33.628C403.32 33.628 403.852 33.6722 404.294 33.7164V34.909C404.294 37.4709 402.391 38.9727 400.132 38.9727C398.628 38.9727 397.787 38.1334 397.787 36.6759C397.742 34.6439 399.379 33.628 402.745 33.628ZM372.11 24.3963V27.665H374.191V38.4869H372.11V41.7554H377.864V34.3789H384.019V41.7113H389.773V38.4869H387.737V27.665H389.773V24.3963H384.019V31.2429H377.864V24.3963H372.11ZM350.15 24.3963V27.665H352.231V38.4869H350.15V41.7554H355.906V34.3789H362.059V41.7113H367.815V38.4869H365.779V27.665H367.815V24.3963H362.059V31.2429H355.906V24.3963H350.15ZM339.084 24.0871C334.17 24.0871 331.203 27.7091 331.203 33.0539C331.203 38.531 334.215 42.1089 339.04 42.1089C342.625 42.1089 345.503 39.9444 346.256 36.1457H342.448C342.05 37.9126 340.855 38.9286 338.995 38.9286C336.472 38.9286 335.189 37.25 335.011 33.893H346.521C346.786 28.681 344.219 24.0871 339.084 24.0871ZM338.951 27.0023C341.164 27.0023 342.492 28.8133 342.581 31.2429H335.099C335.41 28.46 336.65 27.0023 338.951 27.0023ZM304.995 24.3963V27.665H307.076V38.4869H304.995V41.7554H312.167V38.4869H310.44V30.1385C310.44 29.476 310.44 28.5042 310.352 27.7975C310.485 28.5484 310.751 29.476 310.927 30.1385L314.823 41.7554H317.436L321.375 29.9618C321.596 29.2551 321.774 28.4159 321.952 27.7091C321.907 28.4159 321.862 29.2551 321.862 29.9618V38.4869H320.135V41.7554H327.307V38.4869H325.228V27.665H327.307V24.3963H320.225L316.726 34.9531C316.55 35.5715 316.284 36.6316 316.196 37.4709C316.063 36.6759 315.842 35.6158 315.664 34.9531L312.167 24.3963H304.995ZM293.928 24.0871C289.014 24.0871 286.048 27.7091 286.048 33.0539C286.048 38.531 289.058 42.1089 293.883 42.1089C297.469 42.1089 300.346 39.9444 301.099 36.1457H297.292C296.894 37.9126 295.699 38.9286 293.839 38.9286C291.316 38.9286 290.032 37.25 289.856 33.893H301.365C301.631 28.681 299.107 24.0871 293.928 24.0871ZM293.795 27.0023C296.008 27.0023 297.336 28.8133 297.425 31.2429H289.944C290.253 28.46 291.538 27.0023 293.795 27.0023ZM275.068 27.3115C277.724 27.3115 279.009 29.476 279.009 33.098C279.009 36.72 277.724 38.8843 275.068 38.8843C272.191 38.8843 270.996 36.3224 270.996 33.1862C270.996 29.2993 272.5 27.3115 275.068 27.3115ZM265.195 24.3963V27.665H267.276V45.775H265.195V49.0437H273.077V45.775H270.996V38.2218C271.749 40.2979 273.519 42.0646 276.087 42.0646C280.249 42.0646 282.905 38.4426 282.905 33.0539C282.905 27.665 280.249 24.043 276.087 24.043C273.386 24.043 271.792 25.7656 270.996 27.8858V24.3963H265.195ZM251.959 27.1349H254.704C256.607 27.1349 257.227 28.0183 257.227 29.2993C257.227 30.5802 256.607 31.6403 254.704 31.6403H251.959V27.1349ZM251.959 34.0256H254.925C256.961 34.0256 257.847 35.0856 257.847 36.5433C257.847 38.0452 257.006 38.9727 254.88 38.9727H251.959V34.0256ZM246.204 24.3963V27.665H248.285V38.4869H246.204V41.7554H256.165C259.75 41.7554 261.788 39.6352 261.788 37.0292C261.788 34.8649 260.458 33.098 257.847 32.6563C260.104 32.082 261.168 30.5802 261.168 28.681C261.168 26.4724 259.484 24.4404 255.854 24.4404H246.204V24.3963ZM235.18 27.3115C237.748 27.3115 239.166 29.4319 239.166 33.0096C239.166 36.6759 237.793 38.7518 235.18 38.7518C232.614 38.7518 231.196 36.6759 231.196 33.0096C231.196 29.4319 232.569 27.3115 235.18 27.3115ZM235.18 24.0871C230.621 24.0871 227.478 27.4441 227.478 33.0539C227.478 38.7518 230.576 42.1089 235.18 42.1089C239.741 42.1089 242.839 38.7961 242.839 33.0539C242.839 27.4441 239.741 24.0871 235.18 24.0871ZM215.125 17.1523C207.822 17.1523 203.793 22.6294 203.793 29.6085C203.793 36.5875 208.043 42.0646 214.994 42.0646C217.65 42.0646 220.836 41.6229 223.449 41.0045V34.6881H219.42V37.8683C218.047 38.2218 216.455 38.3985 214.994 38.3985C210.388 38.3985 208.131 34.7765 208.131 29.6527C208.131 24.4847 210.345 20.8627 214.994 20.8627C216.498 20.8627 218.092 21.0835 219.42 21.3927V24.6173H223.449V18.2124C220.836 17.5499 217.738 17.1523 215.125 17.1523ZM345.149 62.2947H347.849C349.753 62.2947 350.373 63.1782 350.373 64.4592C350.373 65.7401 349.753 66.8002 347.849 66.8002H345.149V62.2947ZM345.149 69.1413H348.114C350.15 69.1413 351.036 70.2014 351.036 71.6591C351.036 73.1609 350.151 74.0884 348.071 74.0884H345.149V69.1413ZM328.238 62.4716C330.849 62.4716 332.222 64.5917 332.222 68.1694C332.222 71.8357 330.849 73.9118 328.238 73.9118C325.67 73.9118 324.254 71.8357 324.254 68.1694C324.254 64.5917 325.67 62.4716 328.238 62.4716ZM282.33 59.6005V64.7684H285.694V62.4273C286.58 62.2947 287.331 62.2065 288.438 62.2065C290.652 62.2065 291.538 63.1341 291.538 64.7243V66.4027C291.051 66.3584 290.474 66.3143 289.899 66.3143C283.746 66.3143 281.223 68.4345 281.223 72.3657C281.223 75.2811 283.081 77.1803 286.181 77.1803C289.146 77.1803 291.094 75.9877 292.068 73.6909C292.422 76.2086 293.972 77.357 297.336 76.9152V73.6467C295.92 73.8675 295.256 73.205 295.256 71.7473V64.7684C295.256 61.4115 293.618 59.247 288.704 59.247C286.58 59.2029 284.542 59.2913 282.33 59.6005ZM238.988 59.5562V62.8249H240.67L245.407 77.6662L244.92 78.9913C244.345 80.5372 243.15 80.979 241.069 80.979V84.4243C245.141 84.3802 247.754 83.7618 249.48 78.2404L254.571 62.8249H256.298V59.5562H249.259V62.8249H250.985L248.24 71.6591C248.063 72.41 247.842 73.5583 247.709 74.4859C247.576 73.5142 247.399 72.3657 247.222 71.6591L244.522 62.8249H246.248V59.5562H238.988ZM259.396 59.5562V62.8249H261.477V73.6467H259.396V76.9152H267.012V73.6467H265.152V62.8249H271.305V73.6467H269.447V76.9152H277.061V73.6467H275.025V62.8249H277.061V59.5562H259.396ZM290.032 68.7437C290.607 68.7437 291.139 68.788 291.581 68.8321V70.0247C291.581 72.5866 289.678 74.0884 287.421 74.0884C285.915 74.0884 285.074 73.2491 285.074 71.7914C285.029 69.7597 286.668 68.7437 290.032 68.7437ZM300.657 59.5562V62.8249H302.738V73.6467H300.657V76.9152H308.582V73.6467H306.411V62.8249H308.404V59.5562H300.657ZM309.953 59.5562H317.391V62.8249H315.621L310.661 67.8161L315.621 73.6467H317.612V76.9152H313.319L306.544 68.1694L311.547 62.869H309.953V59.5562ZM328.238 59.2029C323.677 59.2029 320.534 62.5598 320.534 68.1694C320.534 73.8675 323.634 77.2244 328.238 77.2244C332.797 77.2244 335.897 73.9118 335.897 68.1694C335.897 62.5598 332.842 59.2029 328.238 59.2029ZM339.394 59.5562V62.8249H341.475V73.6467H339.394V76.9152H349.354C352.941 76.9152 354.977 74.7951 354.977 72.189C354.977 70.0247 353.649 68.2579 351.036 67.8161C353.295 67.2419 354.357 65.7401 354.357 63.8408C354.357 61.6322 352.718 59.6005 349.045 59.6005H339.394V59.5562ZM358.873 59.5562V62.8249H360.954V73.6467H358.873V76.9152H366.798V73.6467H364.627V62.8249H366.62V59.5562H358.873ZM368.169 59.5562H375.607V62.8249H373.837L368.877 67.8161L373.837 73.6467H375.828V76.9152H371.535L364.76 68.1694L369.763 62.869H368.126V59.5562H368.169ZM388.003 68.7437C388.578 68.7437 389.11 68.788 389.552 68.8321V70.0247C389.552 72.5866 387.649 74.0884 385.391 74.0884C383.886 74.0884 383.045 73.2491 383.045 71.7914C383.045 69.7597 384.639 68.7437 388.003 68.7437Z" fill="white"></path><path d="M48.8438 0.5L73.3253 25.0148L97.7626 0.5H48.8438Z" fill="#3C3A82"></path><path d="M49.6404 48.7344L73.3251 25.0148L48.8434 0.5L0.5 48.7344H49.6404Z" fill="#F08046"></path><path d="M73.3693 72.4983L48.8434 97.013L0.5 48.7344H49.6404L73.3693 72.4983Z" fill="#B02A08"></path><path d="M145.265 0.542969L48.8438 97.0117H97.7626L194.183 0.542969H145.265Z" fill="#3C3A82"></path><path d="M97.7644 0.5L73.3271 25.0148L97.0118 48.8227L121.582 24.2639L97.7644 0.5Z" fill="#9185BE"></path></g></g></g><defs><clipPath id="clip0_255_2"><rect width="430" height="97" fill="white" transform="translate(0.5 0.5)"></rect></clipPath></defs></svg> 